<svg xmlns="http://www.w3.org/2000/svg" viewBox="0 0 1200 630"><rect width="1200" height="630" fill="#07111f"/><g opacity=".08" stroke="#fff"><path d="M0 70h1200M0 140h1200M0 210h1200M0 280h1200M0 350h1200M0 420h1200M0 490h1200M0 560h1200M100 0v630M200 0v630M300 0v630M400 0v630M500 0v630M600 0v630M700 0v630M800 0v630M900 0v630M1000 0v630M1100 0v630"/></g><circle cx="960" cy="315" r="210" fill="#16c784" opacity=".08"/><path d="M960 125 1100 178v98c0 88-57 150-140 184-83-34-140-96-140-184v-98l140-53Z" fill="none" stroke="#20e39a" stroke-width="10" opacity=".9"/><circle cx="960" cy="298" r="28" fill="#20e39a"/><text x="90" y="255" font-family="Arial,sans-serif" font-size="78" font-weight="700" fill="#fff">DMCA VISION</text><text x="92" y="330" font-family="Arial,sans-serif" font-size="34" fill="#9eb0be">Protect Your Content.</text><text x="92" y="377" font-family="Arial,sans-serif" font-size="34" fill="#20e39a">Defend Your Rights.</text></svg>
