<svg xmlns="http://www.w3.org/2000/svg" viewBox="0 0 1200 675" role="img" aria-labelledby="title desc">
  <title id="title">Digital evidence intelligence workspace</title><desc id="desc">A structured case workspace organizing a URL, screenshot, timestamp, metadata, and review record.</desc>
  <defs><pattern id="grid" width="44" height="44" patternUnits="userSpaceOnUse"><path d="M44 0H0V44" fill="none" stroke="#173047"/></pattern></defs><rect width="1200" height="675" fill="#07111f"/><rect width="1200" height="675" fill="url(#grid)" opacity=".55"/>
  <text x="74" y="77" fill="#72deb8" font-family="Arial,sans-serif" font-size="16" font-weight="700" letter-spacing="3">EVIDENCE INTELLIGENCE</text><text x="74" y="122" fill="#f4f8fa" font-family="Arial,sans-serif" font-size="32" font-weight="700">Connected case record</text>
  <rect x="72" y="164" width="1056" height="430" rx="22" fill="#0c1b2b" stroke="#2b4255" stroke-width="2"/><rect x="72" y="164" width="1056" height="64" rx="22" fill="#10243a"/><circle cx="108" cy="196" r="7" fill="#16c784"/><text x="130" y="202" fill="#dce6ec" font-family="Arial,sans-serif" font-size="14">CASE DV-2048</text><text x="1036" y="202" fill="#6edeb6" font-family="Arial,sans-serif" font-size="12">VALIDATED</text>
  <rect x="103" y="258" width="540" height="298" rx="14" fill="#081522" stroke="#294052"/><rect x="125" y="280" width="496" height="42" rx="8" fill="#10283a"/><text x="145" y="306" fill="#7edebc" font-family="monospace" font-size="12">https://observed.example/item/482</text><rect x="125" y="344" width="496" height="184" rx="10" fill="#0e2433"/><path d="m168 481 92-88 78 70 76-102 162 167H125z" fill="#164438" opacity=".9"/><circle cx="495" cy="390" r="25" fill="#16c784" opacity=".5"/>
  <g font-family="Arial,sans-serif"><text x="686" y="276" fill="#718799" font-size="11" letter-spacing="2">EVIDENCE FIELDS</text><g fill="#10283a" stroke="#294b5b"><rect x="684" y="292" width="412" height="58" rx="10"/><rect x="684" y="363" width="412" height="58" rx="10"/><rect x="684" y="434" width="412" height="58" rx="10"/><rect x="684" y="505" width="412" height="58" rx="10"/></g><g fill="#82e4c0" font-size="12"><text x="704" y="317">CAPTURE TIME</text><text x="704" y="388">SOURCE METADATA</text><text x="704" y="459">PROTECTED ASSET</text><text x="704" y="530">REVIEW DECISION</text></g><g fill="#d7e1e8" font-size="14"><text x="704" y="338">2026-08-22 · UTC+07</text><text x="704" y="409">URL · Account · Page ID</text><text x="704" y="480">Asset CR-0193</text><text x="704" y="551">Evidence complete</text></g></g>
</svg>
